<svg width="180" height="30" viewBox="0 0 180 30" fill="none" xmlns="http://www.w3.org/2000/svg">
<g clip-path="url(#clip0_7547_20)">
<path d="M66.1939 9.88037C63.9585 9.88037 62.1012 10.5994 60.6768 12.0136C59.2694 13.3938 58.5538 15.1454 58.5538 17.2172C58.5538 19.2892 59.2694 21.051 60.6768 22.4482C62.1012 23.8454 63.9585 24.5542 66.1939 24.5542C68.4466 24.5542 70.3139 23.8454 71.7383 22.4482C73.1628 21.0169 73.8853 19.2585 73.8853 17.2172C73.8853 15.1624 73.1628 13.4108 71.7383 12.0136C70.3105 10.5994 68.4466 9.88037 66.1939 9.88037ZM68.8486 19.8957C68.1194 20.6113 67.2265 20.9759 66.1939 20.9759C65.1615 20.9759 64.2686 20.6148 63.5427 19.8992C62.8306 19.1835 62.4693 18.2737 62.4693 17.1935C62.4693 16.1472 62.8306 15.2613 63.5427 14.566C64.272 13.8333 65.1649 13.4619 66.1939 13.4619C67.2265 13.4619 68.1194 13.8333 68.8486 14.566C69.5778 15.2817 69.9459 16.1642 69.9459 17.1935C69.9459 18.2396 69.5745 19.1494 68.8486 19.8957Z" fill="black"/>
<path d="M82.7319 9.88037C80.4963 9.88037 78.6392 10.5994 77.2148 12.0136C75.8073 13.3938 75.0917 15.1454 75.0917 17.2172C75.0917 19.2892 75.8073 21.051 77.2148 22.4482C78.6392 23.8454 80.4963 24.5542 82.7319 24.5542C84.9844 24.5542 86.8519 23.8454 88.2763 22.4482C89.7007 21.0169 90.4231 19.2585 90.4231 17.2172C90.4231 15.1624 89.7007 13.4108 88.2763 12.0136C86.8484 10.5994 84.9844 9.88037 82.7319 9.88037ZM85.3865 19.8957C84.6573 20.6113 83.7644 20.9759 82.7319 20.9759C81.6993 20.9759 80.8064 20.6148 80.0806 19.8992C79.3684 19.1835 79.0072 18.2737 79.0072 17.1935C79.0072 16.1472 79.3684 15.2613 80.0806 14.566C80.8099 13.8333 81.7027 13.4619 82.7319 13.4619C83.7644 13.4619 84.6573 13.8333 85.3865 14.566C86.1158 15.2817 86.4838 16.1642 86.4838 17.1935C86.4838 18.2396 86.1123 19.1494 85.3865 19.8957Z" fill="black"/>
<path d="M100.435 9.88037C100.377 9.88037 100.316 9.88037 100.258 9.88377C96.8981 9.98942 95.8928 11.4854 95.8826 11.4991L95.7259 11.741V11.4513V10.2654H91.9671V24.169H95.8281V16.8083C95.8281 15.7996 96.1178 14.9716 96.6834 14.3513C97.2525 13.7278 98.0125 13.4108 98.9427 13.4108C99.8015 13.4108 100.5 13.7072 101.011 14.2866C101.519 14.8659 101.778 15.6804 101.778 16.7061V24.1725H105.639V15.6531C105.639 13.8027 105.111 12.3646 104.075 11.373C103.032 10.3813 101.809 9.88037 100.435 9.88037Z" fill="black"/>
<path d="M123.465 12.027C122.057 13.4072 121.342 15.1587 121.342 17.2307C121.342 19.3026 122.057 21.0644 123.465 22.4616C124.89 23.8587 126.747 24.5675 128.981 24.5675C128.989 24.5675 129.034 24.571 129.108 24.571C129.53 24.571 131.033 24.4857 132.611 23.3884L132.744 23.2965V23.46V24.1825H136.605V10.2789H132.747V11.0592V11.2228L132.615 11.1308C130.924 9.95513 129.33 9.8938 129.03 9.8938H128.989C126.747 9.8938 124.89 10.6094 123.465 12.027ZM131.637 14.576C132.366 15.2917 132.733 16.1743 132.733 17.2035C132.733 18.2496 132.366 19.1594 131.637 19.9092C130.907 20.6248 130.015 20.9894 128.981 20.9894C127.949 20.9894 127.057 20.6282 126.331 19.9126C125.618 19.1969 125.257 18.2871 125.257 17.2068C125.257 16.1607 125.618 15.2746 126.331 14.5794C127.059 13.8468 127.953 13.4754 128.981 13.4754C130.015 13.4719 130.907 13.8433 131.637 14.576Z" fill="black"/>

<path d="M156.405 9.88037C156.36 9.88037 156.319 9.88037 156.275 9.88037C152.979 9.9417 151.368 11.5468 151.351 11.5604L151.29 11.6251L151.227 11.5604C149.691 9.90081 147.363 9.88037 147.265 9.88037C144.123 9.93489 142.998 11.5331 142.988 11.5502L142.831 11.7785V11.5025V10.2654H139.072V24.169H142.933V16.6277C142.933 15.6496 143.21 14.8625 143.751 14.2832C144.296 13.7039 145.008 13.4074 145.867 13.4074C146.675 13.4074 147.34 13.6902 147.844 14.2457C148.344 14.7978 148.597 15.5576 148.597 16.4982V24.169H152.459V16.6039C152.459 15.6429 152.734 14.8625 153.276 14.2866C153.822 13.7072 154.54 13.4108 155.42 13.4108C156.227 13.4108 156.885 13.68 157.368 14.2083C157.852 14.7364 158.098 15.4998 158.098 16.4743V24.169H161.959V15.7042C161.959 13.8537 161.414 12.4055 160.343 11.4002C159.274 10.3915 157.948 9.88037 156.405 9.88037Z" fill="black"/>
<path d="M176.986 12.027C175.559 10.6128 173.705 9.8938 171.467 9.8938H171.422C171.118 9.8938 169.524 9.95513 167.833 11.1342L167.701 11.2262V11.0627V10.2789H163.891V29.9858H167.752V23.4941V23.3339L167.884 23.4259C169.445 24.4892 170.92 24.5744 171.336 24.5744C171.415 24.5744 171.459 24.571 171.459 24.571C173.701 24.571 175.559 23.8622 176.984 22.465C178.39 21.0679 179.106 19.3094 179.106 17.2341C179.106 15.1587 178.394 13.4072 176.986 12.027ZM174.121 19.9092C173.391 20.6248 172.499 20.9861 171.467 20.9861C170.434 20.9861 169.541 20.6248 168.815 19.9092C168.143 19.2208 167.778 18.3893 167.725 17.442L167.721 17.0194C167.766 16.0652 168.129 15.244 168.812 14.576C169.541 13.8433 170.434 13.4719 171.463 13.4719C172.495 13.4719 173.388 13.8433 174.117 14.576C174.829 15.2746 175.191 16.1572 175.191 17.2035C175.191 18.2837 174.833 19.1935 174.121 19.9092Z" fill="black"/>
<mask id="mask0_7547_20" style="mask-type:alpha" maskUnits="userSpaceOnUse" x="0" y="0" width="30" height="30">
<path d="M14.7541 29.4203C22.8469 29.4203 29.4075 22.8599 29.4075 14.7671C29.4075 6.67427 22.8469 0.11377 14.7541 0.11377C6.66132 0.11377 0.100807 6.67427 0.100807 14.7671C0.100807 22.8599 6.66132 29.4203 14.7541 29.4203Z" fill="#42ABCF"/>
</mask>
<g mask="url(#mask0_7547_20)">
<path d="M14.7541 29.4206C22.8469 29.4206 29.4075 22.86 29.4075 14.7672C29.4075 6.67441 22.8469 0.113892 14.7541 0.113892C6.66132 0.113892 0.100807 6.67441 0.100807 14.7672C0.100807 22.86 6.66132 29.4206 14.7541 29.4206Z" fill="#42ABCF"/>
<path d="M23.4539 27.1372C33.6564 27.1372 41.9273 18.8663 41.9273 8.66381C41.9273 -1.53876 33.6564 -9.80957 23.4539 -9.80957C13.2513 -9.80957 4.9805 -1.53876 4.9805 8.66381C4.9805 18.8663 13.2513 27.1372 23.4539 27.1372Z" fill="#A6DAF1"/>
</g>
<path d="M12.0379 14.8352C14.4356 14.8352 16.3794 12.8916 16.3794 10.4938C16.3794 8.09608 14.4356 6.15234 12.0379 6.15234C9.64018 6.15234 7.69645 8.09608 7.69645 10.4938C7.69645 12.8916 9.64018 14.8352 12.0379 14.8352Z" fill="#42ABCF"/>
<path d="M21.9546 10.8346C23.1534 10.8346 24.1254 9.86275 24.1254 8.66389C24.1254 7.46503 23.1534 6.49316 21.9546 6.49316C20.7558 6.49316 19.7838 7.46503 19.7838 8.66389C19.7838 9.86275 20.7558 10.8346 21.9546 10.8346Z" fill="#42ABCF"/>
<path d="M14.6111 26.6633C16.4104 26.6633 17.8689 25.2048 17.8689 23.4055C17.8689 21.6063 16.4104 20.1477 14.6111 20.1477C12.8119 20.1477 11.3533 21.6063 11.3533 23.4055C11.3533 25.2048 12.8119 26.6633 14.6111 26.6633Z" fill="#42ABCF"/>
<path d="M46.7971 15.6512L46.7257 15.7534L46.6541 15.6512L39.5149 5.36328H36.666V24.1706H40.6837V14.2166V13.944L40.8371 14.1654L45.9726 21.5024H47.4243L52.5631 14.1654L52.7165 13.944V14.2166V24.1706H56.7853V5.36328H53.8854L46.7971 15.6512Z" fill="black"/>
<path d="M117.637 19.8954C116.908 20.6111 116.015 20.9757 114.983 20.9757C113.95 20.9757 113.057 20.6144 112.332 19.8988C111.619 19.1831 111.258 18.2733 111.258 17.1931C111.258 16.1469 111.619 15.2609 112.332 14.5656C113.061 13.8331 113.954 13.4616 114.983 13.4616C116.015 13.4616 116.908 13.8331 117.637 14.5656C117.75 14.6782 117.852 14.7939 117.948 14.9133L120.994 12.5177C120.847 12.3472 120.694 12.1768 120.527 12.0167C119.099 10.6025 117.235 9.88342 114.983 9.88342C112.747 9.88342 110.89 10.6025 109.466 12.0167C108.058 13.3968 107.343 15.1483 107.343 17.2203C107.343 19.2922 108.058 21.054 109.466 22.4512C110.89 23.8483 112.747 24.5571 114.983 24.5571C117.235 24.5571 119.103 23.8483 120.527 22.4512C120.694 22.2809 120.851 22.107 121.001 21.9298L117.951 19.5342C117.855 19.6568 117.753 19.7795 117.637 19.8954Z" fill="black"/>
</g>
<defs>
<clipPath id="clip0_7547_20">
<rect width="179.129" height="30" fill="white"/>
</clipPath>
</defs>
</svg>
