<svg width="1439" height="241" viewBox="0 0 1439 241" fill="none" xmlns="http://www.w3.org/2000/svg">
<g clip-path="url(#clip0_3418_1675)">
<path d="M531.758 79.3726C513.8 79.3726 498.88 85.1488 487.437 96.5097C476.131 107.597 470.382 121.668 470.382 138.312C470.382 154.957 476.131 169.11 487.437 180.334C498.88 191.558 513.8 197.252 531.758 197.252C549.854 197.252 564.855 191.558 576.298 180.334C587.741 168.836 593.545 154.71 593.545 138.312C593.545 121.805 587.741 107.734 576.298 96.5097C564.828 85.1488 549.854 79.3726 531.758 79.3726ZM553.084 159.829C547.226 165.578 540.053 168.507 531.758 168.507C523.464 168.507 516.291 165.606 510.46 159.857C504.739 154.108 501.837 146.799 501.837 138.121C501.837 129.716 504.739 122.599 510.46 117.014C516.318 111.128 523.491 108.144 531.758 108.144C540.053 108.144 547.226 111.128 553.084 117.014C558.942 122.763 561.899 129.853 561.899 138.121C561.899 146.525 558.915 153.834 553.084 159.829Z" fill="white"/>
<path d="M664.613 79.3726C646.654 79.3726 631.735 85.1488 620.292 96.5097C608.985 107.597 603.237 121.668 603.237 138.312C603.237 154.957 608.985 169.11 620.292 180.334C631.735 191.558 646.654 197.252 664.613 197.252C682.708 197.252 697.71 191.558 709.153 180.334C720.596 168.836 726.399 154.71 726.399 138.312C726.399 121.805 720.596 107.734 709.153 96.5097C697.682 85.1488 682.708 79.3726 664.613 79.3726ZM685.938 159.829C680.08 165.578 672.907 168.507 664.613 168.507C656.318 168.507 649.145 165.606 643.314 159.857C637.593 154.108 634.691 146.799 634.691 138.121C634.691 129.716 637.593 122.599 643.314 117.014C649.173 111.128 656.345 108.144 664.613 108.144C672.907 108.144 680.08 111.128 685.938 117.014C691.797 122.763 694.753 129.853 694.753 138.121C694.753 146.525 691.769 153.834 685.938 159.829Z" fill="white"/>
<path d="M806.831 79.3726C806.365 79.3726 805.872 79.3726 805.407 79.3999C778.415 80.2486 770.339 92.2664 770.257 92.376L768.998 94.3196V91.9927V82.466H738.802V194.158H769.819V135.027C769.819 126.924 772.146 120.272 776.69 115.289C781.262 110.28 787.367 107.734 794.84 107.734C801.739 107.734 807.351 110.115 811.457 114.769C815.536 119.423 817.617 125.966 817.617 134.206V194.186H848.633V125.747C848.633 110.882 844.39 99.3293 836.068 91.3631C827.691 83.3968 817.863 79.3726 806.831 79.3726Z" fill="white"/>
<path d="M991.833 96.6171C980.527 107.704 974.779 121.775 974.779 138.42C974.779 155.064 980.527 169.217 991.833 180.441C1003.28 191.665 1018.2 197.359 1036.15 197.359C1036.21 197.359 1036.57 197.387 1037.17 197.387C1040.56 197.387 1052.63 196.702 1065.31 187.887L1066.38 187.148V188.462V194.266H1097.39V82.5734H1066.4V88.8424V90.1565L1065.34 89.4173C1051.76 79.9727 1038.95 79.48 1036.54 79.48H1036.21C1018.2 79.48 1003.28 85.2288 991.833 96.6171ZM1057.48 117.094C1063.34 122.843 1066.29 129.933 1066.29 138.201C1066.29 146.605 1063.34 153.914 1057.48 159.937C1051.62 165.686 1044.45 168.615 1036.15 168.615C1027.86 168.615 1020.69 165.713 1014.86 159.964C1009.13 154.215 1006.23 146.906 1006.23 138.228C1006.23 129.824 1009.13 122.706 1014.86 117.121C1020.71 111.236 1027.89 108.252 1036.15 108.252C1044.45 108.224 1051.62 111.208 1057.48 117.094Z" fill="white"/>
<path d="M1256.45 79.3726C1256.09 79.3726 1255.76 79.3726 1255.41 79.3726C1228.93 79.8653 1215.99 92.7592 1215.85 92.8687L1215.36 93.3888L1214.86 92.8687C1202.52 79.5368 1183.82 79.3726 1183.03 79.3726C1157.79 79.8106 1148.75 92.6497 1148.67 92.7866L1147.41 94.6207V92.4033V82.466H1117.21V194.158H1148.23V133.576C1148.23 125.719 1150.45 119.396 1154.8 114.742C1159.18 110.088 1164.9 107.706 1171.8 107.706C1178.29 107.706 1183.63 109.978 1187.68 114.441C1191.7 118.876 1193.73 124.98 1193.73 132.536V194.158H1224.75V133.385C1224.75 125.665 1226.96 119.396 1231.32 114.769C1235.7 110.115 1241.47 107.734 1248.54 107.734C1255.02 107.734 1260.31 109.896 1264.19 114.14C1268.08 118.383 1270.05 124.515 1270.05 132.344V194.158H1301.07V126.157C1301.07 111.292 1296.69 99.6579 1288.09 91.5821C1279.5 83.4789 1268.85 79.3726 1256.45 79.3726Z" fill="white"/>
<path d="M1421.79 96.6171C1410.32 85.2562 1395.43 79.48 1377.45 79.48H1377.09C1374.65 79.48 1361.84 79.9727 1348.26 89.4447L1347.2 90.1838V88.8698V82.5734H1316.59V240.886H1347.61V188.736V187.449L1348.67 188.188C1361.21 196.73 1373.06 197.414 1376.4 197.414C1377.03 197.414 1377.39 197.387 1377.39 197.387C1395.4 197.387 1410.32 191.693 1421.77 180.469C1433.07 169.245 1438.82 155.119 1438.82 138.447C1438.82 121.775 1433.1 107.704 1421.79 96.6171ZM1398.77 159.937C1392.91 165.686 1385.74 168.588 1377.45 168.588C1369.15 168.588 1361.98 165.686 1356.15 159.937C1350.75 154.407 1347.82 147.727 1347.39 140.117L1347.36 136.722C1347.72 129.057 1350.64 122.46 1356.12 117.094C1361.98 111.208 1369.15 108.224 1377.42 108.224C1385.71 108.224 1392.88 111.208 1398.74 117.094C1404.46 122.706 1407.37 129.796 1407.37 138.201C1407.37 146.879 1404.49 154.188 1398.77 159.937Z" fill="white"/>
<mask id="mask0_3418_1675" style="mask-type:alpha" maskUnits="userSpaceOnUse" x="0" y="0" width="237" height="237">
<path d="M118.525 236.343C183.537 236.343 236.24 183.641 236.24 118.629C236.24 53.6163 183.537 0.913574 118.525 0.913574C53.5124 0.913574 0.80957 53.6163 0.80957 118.629C0.80957 183.641 53.5124 236.343 118.525 236.343Z" fill="#42ABCF"/>
</mask>
<g mask="url(#mask0_3418_1675)">
<path d="M118.525 236.345C183.537 236.345 236.24 183.642 236.24 118.63C236.24 53.6176 183.537 0.914795 118.525 0.914795C53.5124 0.914795 0.80957 53.6176 0.80957 118.63C0.80957 183.642 53.5124 236.345 118.525 236.345Z" fill="#42ABCF"/>
<path d="M188.413 218.002C270.373 218.002 336.816 151.559 336.816 69.5986C336.816 -12.362 270.373 -78.8042 188.413 -78.8042C106.452 -78.8042 40.0098 -12.362 40.0098 69.5986C40.0098 151.559 106.452 218.002 188.413 218.002Z" fill="#A6DAF1"/>
</g>
<path d="M96.7045 119.176C115.966 119.176 131.581 103.562 131.581 84.3C131.581 65.0383 115.966 49.4236 96.7045 49.4236C77.4428 49.4236 61.8281 65.0383 61.8281 84.3C61.8281 103.562 77.4428 119.176 96.7045 119.176Z" fill="#42ABCF"/>
<path d="M176.369 87.0378C185.999 87.0378 193.807 79.2304 193.807 69.5996C193.807 59.9687 185.999 52.1614 176.369 52.1614C166.738 52.1614 158.93 59.9687 158.93 69.5996C158.93 79.2304 166.738 87.0378 176.369 87.0378Z" fill="#42ABCF"/>
<path d="M117.376 214.195C131.83 214.195 143.547 202.478 143.547 188.024C143.547 173.57 131.83 161.853 117.376 161.853C102.922 161.853 91.2046 173.57 91.2046 188.024C91.2046 202.478 102.922 214.195 117.376 214.195Z" fill="#42ABCF"/>
<path d="M375.937 125.732L375.363 126.553L374.788 125.732L317.436 43.0854H294.55V194.171H326.826V114.207V112.017L328.058 113.796L369.313 172.736H380.975L422.257 113.796L423.489 112.017V114.207V194.171H456.175V43.0854H432.879L375.937 125.732Z" fill="white"/>
<path d="M945.02 159.827C939.162 165.576 931.99 168.505 923.695 168.505C915.4 168.505 908.228 165.603 902.397 159.854C896.675 154.105 893.773 146.796 893.773 138.118C893.773 129.714 896.675 122.596 902.397 117.011C908.255 111.126 915.427 108.142 923.695 108.142C931.99 108.142 939.162 111.126 945.02 117.011C945.924 117.915 946.745 118.845 947.512 119.804L971.985 100.559C970.808 99.1898 969.576 97.821 968.235 96.5343C956.765 85.1735 941.79 79.3972 923.695 79.3972C905.737 79.3972 890.817 85.1735 879.374 96.5343C868.068 107.621 862.319 121.692 862.319 138.337C862.319 154.981 868.068 169.134 879.374 180.358C890.817 191.582 905.737 197.276 923.695 197.276C941.79 197.276 956.792 191.582 968.235 180.358C969.576 178.99 970.836 177.593 972.04 176.17L947.539 156.925C946.772 157.91 945.951 158.896 945.02 159.827Z" fill="white"/>
</g>
<defs>
<clipPath id="clip0_3418_1675">
<rect width="1439" height="241" fill="white"/>
</clipPath>
</defs>
</svg>
